<svg width="23" height="18" viewBox="0 0 23 18" fill="none" xmlns="http://www.w3.org/2000/svg">
<path d="M21.0938 0.976562C21.9141 1.28906 22.5 2.07031 22.5 2.92969V14.7656C22.5 15.3516 22.2266 15.8594 21.7188 16.2109C21.25 16.5234 20.6641 16.6406 20.1172 16.4844C15.5859 15.0781 12.1484 17.0703 11.7578 17.3438C11.6016 17.4219 11.4453 17.5 11.2109 17.5C10.9766 17.5 10.8203 17.4219 10.6641 17.3438C10.4688 17.2266 6.95312 15.0391 2.30469 16.4844C1.75781 16.6406 1.17188 16.5234 0.703125 16.2109C0.234375 15.8594 0 15.3516 0 14.7656V2.92969C0 2.07031 0.546875 1.28906 1.36719 0.976562C3.125 0.351562 4.84375 0 6.40625 0C8.71094 0.0390625 10.3906 0.703125 11.25 1.09375C12.0703 0.703125 13.7109 0.0390625 16.0547 0.0390625C17.5781 0.0390625 19.2969 0.351562 21.0938 0.976562ZM10.625 15.8984V2.1875C9.92188 1.875 8.4375 1.28906 6.40625 1.25C4.96094 1.25 3.39844 1.5625 1.75781 2.14844C1.44531 2.26562 1.25 2.57812 1.25 2.92969V14.7656C1.25 14.9219 1.32812 15.0781 1.44531 15.1953C1.60156 15.3125 1.75781 15.3125 1.95312 15.2734C3.24219 14.8828 4.41406 14.7266 5.50781 14.7266C7.8125 14.7266 9.64844 15.4297 10.625 15.8984ZM21.25 14.7656V2.92969C21.25 2.57812 21.0156 2.26562 20.7031 2.14844C19.0234 1.5625 17.4219 1.25 16.0547 1.25C14.0234 1.28906 12.5391 1.875 11.875 2.1875V15.8984C13.3203 15.1953 16.5625 14.0625 20.5078 15.2734C20.7031 15.3125 20.8594 15.3125 21.0156 15.1953C21.1328 15.0781 21.25 14.9219 21.25 14.7656Z" fill="#F1DBB5"/>
</svg>
