<svg width="25" height="20" viewBox="0 0 25 20" fill="none" xmlns="http://www.w3.org/2000/svg">
<path d="M12.5 0C12.6562 0 12.8125 0.078125 12.9297 0.195312L15.8594 3.125C16.0938 3.35938 16.25 3.71094 16.25 4.02344V7.5L17.8516 8.47656C18.3984 8.82812 18.75 9.45312 18.75 10.0781V18.75H22.5C23.1641 18.75 23.75 18.2031 23.75 17.5V14.8047C23.75 14.375 23.5156 13.9844 23.1641 13.75L20 11.6797V10.1953L23.8281 12.6953C24.5312 13.1641 25 13.9453 25 14.8047V17.5C25 18.9062 23.8672 20 22.5 20H2.5C1.09375 20 0 18.9062 0 17.5V14.8047C0 13.9453 0.429688 13.1641 1.13281 12.6953L5 10.1953V11.6797L1.79688 13.75C1.44531 13.9844 1.25 14.375 1.25 14.8047V17.5C1.25 18.2031 1.79688 18.75 2.5 18.75H6.25V10.0781C6.25 9.45312 6.5625 8.82812 7.10938 8.47656L8.75 7.5V4.02344C8.75 3.71094 8.86719 3.35938 9.10156 3.125L12.0312 0.195312C12.1484 0.078125 12.3047 0 12.4609 0H12.5ZM17.1875 9.57031L15.2734 8.39844C15.0781 8.28125 15 8.08594 15 7.85156V4.02344L12.5 1.52344L10 4.02344V7.85156C10 8.08594 9.88281 8.28125 9.6875 8.39844L7.77344 9.57031C7.57812 9.6875 7.5 9.88281 7.5 10.0781V18.75H10V15C10 13.6328 11.0938 12.5 12.5 12.5C13.8672 12.5 15 13.6328 15 15V18.75H17.5V10.0781C17.5 9.88281 17.3828 9.6875 17.1875 9.57031ZM13.75 15C13.75 14.3359 13.1641 13.75 12.5 13.75C11.7969 13.75 11.25 14.3359 11.25 15V18.75H13.75V15Z" fill="#F1DBB5"/>
</svg>
