<svg width="20" height="18" viewBox="0 0 20 18" fill="none" xmlns="http://www.w3.org/2000/svg">
<path d="M16.875 0C17.1875 0 17.5 0.3125 17.5 0.625V2.5H19.375C19.6875 2.5 20 2.8125 20 3.125C20 3.47656 19.6875 3.75 19.375 3.75H17.5V5.625C17.5 5.97656 17.1875 6.25 16.875 6.25C16.5234 6.25 16.25 5.97656 16.25 5.625V3.75H14.375C14.0234 3.75 13.75 3.47656 13.75 3.125C13.75 2.8125 14.0234 2.5 14.375 2.5H16.25V0.625C16.25 0.3125 16.5234 0 16.875 0ZM16.875 11.25C17.1875 11.25 17.5 11.5625 17.5 11.875V13.75H19.375C19.6875 13.75 20 14.0625 20 14.375C20 14.7266 19.6875 15 19.375 15H17.5V16.875C17.5 17.2266 17.1875 17.5 16.875 17.5C16.5234 17.5 16.25 17.2266 16.25 16.875V15H14.375C14.0234 15 13.75 14.7266 13.75 14.375C13.75 14.0625 14.0234 13.75 14.375 13.75H16.25V11.875C16.25 11.5625 16.5234 11.25 16.875 11.25ZM4.80469 11.3281L0.351562 9.29688C0.117188 9.17969 0 8.94531 0 8.71094C0 8.47656 0.117188 8.24219 0.351562 8.125L4.80469 6.09375L6.875 1.64062C6.95312 1.40625 7.1875 1.25 7.42188 1.25C7.65625 1.25 7.89062 1.40625 8.00781 1.64062L10.0391 6.09375L14.4922 8.125C14.7266 8.24219 14.8828 8.47656 14.8828 8.71094C14.8828 8.94531 14.7266 9.17969 14.4922 9.29688L10.0391 11.3281L8.00781 15.7812C7.89062 16.0156 7.65625 16.1719 7.42188 16.1719C7.1875 16.1719 6.95312 16.0156 6.875 15.7812L4.80469 11.3281ZM2.10938 8.71094L5.3125 10.1953C5.58594 10.3125 5.82031 10.5469 5.9375 10.8203L7.42188 14.0234L8.90625 10.8203C9.02344 10.5469 9.25781 10.3125 9.53125 10.1953L12.7344 8.71094L9.53125 7.22656C9.25781 7.10938 9.02344 6.875 8.90625 6.60156L7.42188 3.39844L5.9375 6.60156C5.82031 6.875 5.58594 7.10938 5.3125 7.22656L2.10938 8.71094Z" fill="#F1DBB5"/>
</svg>
